<?xml version="1.0" encoding="UTF-8" standalone="no"?>
<!-- Created with Inkscape (http://www.inkscape.org/) -->

<svg
   xmlns:dc="http://purl.org/dc/elements/1.1/"
   xmlns:cc="http://creativecommons.org/ns#"
   xmlns:rdf="http://www.w3.org/1999/02/22-rdf-syntax-ns#"
   xmlns:svg="http://www.w3.org/2000/svg"
   xmlns="http://www.w3.org/2000/svg"
   xmlns:xlink="http://www.w3.org/1999/xlink"
   xmlns:sodipodi="http://sodipodi.sourceforge.net/DTD/sodipodi-0.dtd"
   xmlns:inkscape="http://www.inkscape.org/namespaces/inkscape"
   width="3.0869999in"
   height="4.5819998in"
   viewBox="0 0 78.409799 116.3828"
   version="1.1"
   id="svg8"
   inkscape:version="0.92.4 (5da689c313, 2019-01-14)"
   sodipodi:docname="lemons.svg"
   inkscape:export-filename="C:\Users\16mpe\Music\githubPages\graystripes.png"
   inkscape:export-xdpi="228.84"
   inkscape:export-ydpi="228.84">
  <defs
     id="defs2">
    <linearGradient
       inkscape:collect="always"
       id="linearGradient1226">
      <stop
         style="stop-color:#fffc87;stop-opacity:1;"
         offset="0"
         id="stop1222" />
      <stop
         style="stop-color:#fffc87;stop-opacity:0;"
         offset="1"
         id="stop1224" />
    </linearGradient>
    <clipPath
       clipPathUnits="userSpaceOnUse"
       id="clipPath1166">
      <g
         id="g1170"
         transform="rotate(45,-115.62225,277.84631)">
        <path
           id="path1168"
           style="opacity:1;vector-effect:none;fill:#fff7f7;fill-opacity:1;fill-rule:nonzero;stroke:none;stroke-width:0.04681043;stroke-linecap:butt;stroke-linejoin:miter;stroke-miterlimit:4;stroke-dasharray:none;stroke-dashoffset:0;stroke-opacity:1;paint-order:normal"
           d="m -195.64102,66.613647 h 3.74177 V 303.78513 h -3.74177 z m 0,0 h 3.74177 V 303.78513 h -3.74177 z m -7.48355,0 h 3.74177 V 303.78513 h -3.74177 z m 0,0 h 3.74177 V 303.78513 h -3.74177 z m -7.48356,0 h 3.74177 V 303.78513 h -3.74177 z m 0,0 h 3.74177 V 303.78513 h -3.74177 z m -7.48355,0 h 3.74177 V 303.78513 h -3.74177 z m 0,0 h 3.74177 V 303.78513 h -3.74177 z m -7.48356,0 h 3.74177 V 303.78513 h -3.74177 z m 0,0 h 3.74177 V 303.78513 h -3.74177 z m -7.48355,0 h 3.74177 V 303.78513 h -3.74177 z m 0,0 h 3.74177 V 303.78513 h -3.74177 z m -7.48356,0 h 3.74177 V 303.78513 h -3.74177 z m 0,0 h 3.74177 V 303.78513 h -3.74177 z m -7.48355,0 h 3.74177 V 303.78513 h -3.74177 z m 0,0 h 3.74177 V 303.78513 h -3.74177 z m -7.48356,0 h 3.74177 V 303.78513 h -3.74177 z m 0,0 h 3.74177 V 303.78513 h -3.74177 z m -7.48355,0 h 3.74177 V 303.78513 h -3.74177 z m 0,0 h 3.74177 V 303.78513 h -3.74177 z m -7.48356,0 h 3.74177 V 303.78513 h -3.74177 z m 0,0 h 3.74177 V 303.78513 h -3.74177 z m -7.48355,0 h 3.74177 V 303.78513 h -3.74177 z m 0,0 h 3.74177 V 303.78513 h -3.74177 z m -7.48356,0 h 3.74177 V 303.78513 h -3.74177 z m 0,0 h 3.74177 V 303.78513 h -3.74177 z m -7.48355,0 h 3.74177 V 303.78513 h -3.74177 z m 0,0 h 3.74177 V 303.78513 h -3.74177 z m -7.48356,0 h 3.74177 V 303.78513 h -3.74177 z m 0,0 h 3.74177 V 303.78513 h -3.74177 z m -7.48356,0 h 3.74177 V 303.78513 h -3.74177 z m 0,0 h 3.74177 V 303.78513 h -3.74177 z m -7.48355,0 h 3.74177 V 303.78513 h -3.74177 z m 0,0 h 3.74177 V 303.78513 h -3.74177 z m -7.48356,0 h 3.74177 V 303.78513 h -3.74177 z m 0,0 h 3.74177 V 303.78513 h -3.74177 z m -7.48355,0 h 3.74177 V 303.78513 h -3.74177 z m 0,0 h 3.74177 V 303.78513 h -3.74177 z m -7.48356,0 h 3.74177 V 303.78513 h -3.74177 z m 0,0 h 3.74177 V 303.78513 h -3.74177 z m -7.48355,0 h 3.74177 V 303.78513 h -3.74177 z m 0,0 h 3.74177 V 303.78513 h -3.74177 z m -7.48356,0 h 3.74177 V 303.78513 h -3.74177 z m 0,0 h 3.74177 V 303.78513 h -3.74177 z m -7.48355,0 h 3.74177 V 303.78513 h -3.74177 z m 0,0 h 3.74177 V 303.78513 h -3.74177 z m -7.48356,0 h 3.74177 V 303.78513 h -3.74177 z m 0,0 h 3.74177 V 303.78513 h -3.74177 z m -7.48355,0 h 3.74177 V 303.78513 h -3.74177 z m 0,0 h 3.74177 V 303.78513 h -3.74177 z m -7.48356,0 h 3.74177 V 303.78513 h -3.74177 z m 0,0 h 3.74177 V 303.78513 h -3.74177 z m -7.48355,0 h 3.74177 V 303.78513 h -3.74177 z m 0,0 h 3.74177 V 303.78513 h -3.74177 z m -7.48356,0 h 3.74177 V 303.78513 h -3.74177 z m 0,0 h 3.74177 V 303.78513 h -3.74177 z m -7.48355,0 h 3.74177 V 303.78513 h -3.74177 z m 0,0 h 3.74177 V 303.78513 h -3.74177 z m -7.48356,0 h 3.74177 V 303.78513 h -3.74177 z m 0,0 h 3.74177 V 303.78513 h -3.74177 z"
           inkscape:connector-curvature="0" />
      </g>
    </clipPath>
    <linearGradient
       inkscape:collect="always"
       xlink:href="#linearGradient1226"
       id="linearGradient1228"
       x1="-427.68286"
       y1="89.249977"
       x2="-355.84872"
       y2="106.89434"
       gradientUnits="userSpaceOnUse"
       gradientTransform="translate(-101.02088,89.075428)" />
    <clipPath
       clipPathUnits="userSpaceOnUse"
       id="clipPath2044">
      <rect
         style="opacity:1;vector-effect:none;fill:#c3a65f;fill-opacity:1;fill-rule:nonzero;stroke:none;stroke-width:0.97629231;stroke-linecap:butt;stroke-linejoin:miter;stroke-miterlimit:4;stroke-dasharray:none;stroke-dashoffset:0;stroke-opacity:1;paint-order:normal"
         id="rect2046"
         width="204.11284"
         height="302.96243"
         x="1343.733"
         y="-1870.0621"
         transform="rotate(-45.848428)" />
    </clipPath>
    <linearGradient
       inkscape:collect="always"
       xlink:href="#linearGradient1226"
       id="linearGradient2068"
       gradientUnits="userSpaceOnUse"
       gradientTransform="translate(82.922936,18.803104)"
       x1="-427.68286"
       y1="89.249977"
       x2="-355.84872"
       y2="106.89434" />
    <linearGradient
       inkscape:collect="always"
       xlink:href="#linearGradient1226"
       id="linearGradient2078"
       gradientUnits="userSpaceOnUse"
       gradientTransform="translate(82.922936,18.803104)"
       x1="-427.68286"
       y1="89.249977"
       x2="-355.84872"
       y2="106.89434" />
    <linearGradient
       inkscape:collect="always"
       xlink:href="#linearGradient1226"
       id="linearGradient2088"
       gradientUnits="userSpaceOnUse"
       gradientTransform="translate(82.922936,18.803104)"
       x1="-427.68286"
       y1="89.249977"
       x2="-355.84872"
       y2="106.89434" />
    <linearGradient
       inkscape:collect="always"
       xlink:href="#linearGradient1226"
       id="linearGradient2098"
       gradientUnits="userSpaceOnUse"
       gradientTransform="translate(82.922936,18.803104)"
       x1="-427.68286"
       y1="89.249977"
       x2="-355.84872"
       y2="106.89434" />
    <linearGradient
       inkscape:collect="always"
       xlink:href="#linearGradient1226"
       id="linearGradient2108"
       gradientUnits="userSpaceOnUse"
       gradientTransform="translate(82.922936,18.803104)"
       x1="-427.68286"
       y1="89.249977"
       x2="-355.84872"
       y2="106.89434" />
  </defs>
  <sodipodi:namedview
     id="base"
     pagecolor="#ffffff"
     bordercolor="#666666"
     borderopacity="1.0"
     inkscape:pageopacity="1"
     inkscape:pageshadow="2"
     inkscape:zoom="1.4"
     inkscape:cx="53.083162"
     inkscape:cy="241.30812"
     inkscape:document-units="in"
     inkscape:current-layer="g1264"
     showgrid="false"
     units="in"
     showborder="true"
     borderlayer="true"
     inkscape:showpageshadow="false"
     inkscape:pagecheckerboard="false"
     fit-margin-top="0"
     fit-margin-left="0"
     fit-margin-right="0"
     fit-margin-bottom="0"
     inkscape:snap-global="false" />
  <metadata
     id="metadata5">
    <rdf:RDF>
      <cc:Work
         rdf:about="">
        <dc:format>image/svg+xml</dc:format>
        <dc:type
           rdf:resource="http://purl.org/dc/dcmitype/StillImage" />
        <dc:title></dc:title>
      </cc:Work>
    </rdf:RDF>
  </metadata>
  <g
     inkscape:label="Layer 1"
     inkscape:groupmode="layer"
     id="layer1"
     transform="translate(-238.97368,599.08428)">
    <g
       id="g1220"
       transform="matrix(0.2675826,0.27562696,-0.27562696,0.2675826,-263.51031,163.98695)">
      <g
         id="g1264"
         transform="translate(-105.08971,-58.758139)">
        <rect
           style="opacity:1;vector-effect:none;fill:#ebebeb;fill-opacity:1;fill-rule:nonzero;stroke:none;stroke-width:1.3224026;stroke-linecap:butt;stroke-linejoin:miter;stroke-miterlimit:4;stroke-dasharray:none;stroke-dashoffset:0;stroke-opacity:1;paint-order:normal"
           id="rect2110"
           width="286.81573"
           height="401.44363"
           x="1306.1241"
           y="-1909.0156"
           transform="rotate(-45.848428)" />
        <g
           id="g2026"
           clip-path="url(#clipPath2044)"
           transform="translate(-3.2370723,3.3343887)"
           inkscape:export-xdpi="228.84"
           inkscape:export-ydpi="228.84">
          <g
             inkscape:tile-y0="-134.19951"
             inkscape:tile-x0="258.41057"
             id="use1609-3"
             style="fill:#00ffa3;stroke:#00ffa3"
             transform="translate(-113.81991,-1292.1171)">
            <g
               id="g2064"
               transform="translate(259.86529,-870.84032)">
              <path
                 inkscape:connector-curvature="0"
                 id="path2060"
                 d="m -334.48525,75.122823 c -25.94778,12.64121 -29.53126,52.462747 0,62.172067 29.53124,-9.70932 25.94779,-49.530857 0,-62.172067 z"
                 style="opacity:1;vector-effect:none;fill:#c3a65f;fill-opacity:1;fill-rule:nonzero;stroke:none;stroke-width:0.24571383;stroke-linecap:butt;stroke-linejoin:miter;stroke-miterlimit:4;stroke-dasharray:none;stroke-dashoffset:0;stroke-opacity:1;paint-order:normal" />
              <path
                 inkscape:connector-curvature="0"
                 id="path2062"
                 d="m -334.48525,75.122825 c -25.94778,12.64122 -29.53126,52.462745 0,62.172055 29.53124,-9.70931 25.94779,-49.530835 0,-62.172055 z"
                 style="opacity:1;vector-effect:none;fill:url(#linearGradient2068);fill-opacity:1;fill-rule:nonzero;stroke:#747474;stroke-width:1.3224026;stroke-linecap:butt;stroke-linejoin:miter;stroke-miterlimit:4;stroke-dasharray:none;stroke-dashoffset:0;stroke-opacity:1;paint-order:normal" />
            </g>
          </g>
          <g
             inkscape:tile-y0="-134.19951"
             inkscape:tile-x0="258.41057"
             id="use1621-7"
             style="fill:#00ffa3;stroke:#00ffa3"
             transform="translate(-331.2216,-1503.1737)">
            <g
               id="g2074"
               transform="translate(259.86529,-870.84032)">
              <path
                 inkscape:connector-curvature="0"
                 id="path2070"
                 d="m -334.48525,75.122823 c -25.94778,12.64121 -29.53126,52.462747 0,62.172067 29.53124,-9.70932 25.94779,-49.530857 0,-62.172067 z"
                 style="opacity:1;vector-effect:none;fill:#c3a65f;fill-opacity:1;fill-rule:nonzero;stroke:none;stroke-width:0.24571383;stroke-linecap:butt;stroke-linejoin:miter;stroke-miterlimit:4;stroke-dasharray:none;stroke-dashoffset:0;stroke-opacity:1;paint-order:normal" />
              <path
                 inkscape:connector-curvature="0"
                 id="path2072"
                 d="m -334.48525,75.122825 c -25.94778,12.64122 -29.53126,52.462745 0,62.172055 29.53124,-9.70931 25.94779,-49.530835 0,-62.172055 z"
                 style="opacity:1;vector-effect:none;fill:url(#linearGradient2078);fill-opacity:1;fill-rule:nonzero;stroke:#747474;stroke-width:1.3224026;stroke-linecap:butt;stroke-linejoin:miter;stroke-miterlimit:4;stroke-dasharray:none;stroke-dashoffset:0;stroke-opacity:1;paint-order:normal" />
            </g>
          </g>
          <g
             inkscape:tile-y0="-134.19951"
             inkscape:tile-x0="258.41057"
             id="use1623-9"
             style="fill:#00ffa3;stroke:#00ffa3"
             transform="translate(-151.42181,-1470.8818)">
            <g
               id="g2084"
               transform="translate(259.86529,-870.84032)">
              <path
                 inkscape:connector-curvature="0"
                 id="path2080"
                 d="m -334.48525,75.122823 c -25.94778,12.64121 -29.53126,52.462747 0,62.172067 29.53124,-9.70932 25.94779,-49.530857 0,-62.172067 z"
                 style="opacity:1;vector-effect:none;fill:#c3a65f;fill-opacity:1;fill-rule:nonzero;stroke:none;stroke-width:0.24571383;stroke-linecap:butt;stroke-linejoin:miter;stroke-miterlimit:4;stroke-dasharray:none;stroke-dashoffset:0;stroke-opacity:1;paint-order:normal" />
              <path
                 inkscape:connector-curvature="0"
                 id="path2082"
                 d="m -334.48525,75.122825 c -25.94778,12.64122 -29.53126,52.462745 0,62.172055 29.53124,-9.70931 25.94779,-49.530835 0,-62.172055 z"
                 style="opacity:1;vector-effect:none;fill:url(#linearGradient2088);fill-opacity:1;fill-rule:nonzero;stroke:#747474;stroke-width:1.3224026;stroke-linecap:butt;stroke-linejoin:miter;stroke-miterlimit:4;stroke-dasharray:none;stroke-dashoffset:0;stroke-opacity:1;paint-order:normal" />
            </g>
          </g>
          <g
             inkscape:tile-y0="-134.19951"
             inkscape:tile-x0="258.41057"
             id="use1625-6"
             style="fill:#00ffa3;stroke:#00ffa3"
             transform="translate(28.377988,-1438.59)">
            <g
               id="g2094"
               transform="translate(259.86529,-870.84032)">
              <path
                 inkscape:connector-curvature="0"
                 id="path2090"
                 d="m -334.48525,75.122823 c -25.94778,12.64121 -29.53126,52.462747 0,62.172067 29.53124,-9.70932 25.94779,-49.530857 0,-62.172067 z"
                 style="opacity:1;vector-effect:none;fill:#c3a65f;fill-opacity:1;fill-rule:nonzero;stroke:none;stroke-width:0.24571383;stroke-linecap:butt;stroke-linejoin:miter;stroke-miterlimit:4;stroke-dasharray:none;stroke-dashoffset:0;stroke-opacity:1;paint-order:normal" />
              <path
                 inkscape:connector-curvature="0"
                 id="path2092"
                 d="m -334.48525,75.122825 c -25.94778,12.64122 -29.53126,52.462745 0,62.172055 29.53124,-9.70931 25.94779,-49.530835 0,-62.172055 z"
                 style="opacity:1;vector-effect:none;fill:url(#linearGradient2098);fill-opacity:1;fill-rule:nonzero;stroke:#747474;stroke-width:1.3224026;stroke-linecap:butt;stroke-linejoin:miter;stroke-miterlimit:4;stroke-dasharray:none;stroke-dashoffset:0;stroke-opacity:1;paint-order:normal" />
            </g>
          </g>
          <g
             inkscape:tile-y0="-134.19951"
             inkscape:tile-x0="258.41057"
             id="use1637-8"
             style="fill:#00ffa3;stroke:#00ffa3"
             transform="translate(-189.02361,-1649.6466)">
            <g
               id="g2104"
               transform="translate(259.86529,-870.84032)">
              <path
                 inkscape:connector-curvature="0"
                 id="path2100"
                 d="m -334.48525,75.122823 c -25.94778,12.64121 -29.53126,52.462747 0,62.172067 29.53124,-9.70932 25.94779,-49.530857 0,-62.172067 z"
                 style="opacity:1;vector-effect:none;fill:#c3a65f;fill-opacity:1;fill-rule:nonzero;stroke:none;stroke-width:0.24571383;stroke-linecap:butt;stroke-linejoin:miter;stroke-miterlimit:4;stroke-dasharray:none;stroke-dashoffset:0;stroke-opacity:1;paint-order:normal" />
              <path
                 inkscape:connector-curvature="0"
                 id="path2102"
                 d="m -334.48525,75.122825 c -25.94778,12.64122 -29.53126,52.462745 0,62.172055 29.53124,-9.70931 25.94779,-49.530835 0,-62.172055 z"
                 style="opacity:1;vector-effect:none;fill:url(#linearGradient2108);fill-opacity:1;fill-rule:nonzero;stroke:#747474;stroke-width:1.3224026;stroke-linecap:butt;stroke-linejoin:miter;stroke-miterlimit:4;stroke-dasharray:none;stroke-dashoffset:0;stroke-opacity:1;paint-order:normal" />
            </g>
          </g>
        </g>
      </g>
    </g>
  </g>
</svg>
