<?xml version="1.0" encoding="UTF-8" standalone="no"?>
<!-- Created with Inkscape (http://www.inkscape.org/) -->

<svg
   xmlns:dc="http://purl.org/dc/elements/1.1/"
   xmlns:cc="http://creativecommons.org/ns#"
   xmlns:rdf="http://www.w3.org/1999/02/22-rdf-syntax-ns#"
   xmlns:svg="http://www.w3.org/2000/svg"
   xmlns="http://www.w3.org/2000/svg"
   xmlns:sodipodi="http://sodipodi.sourceforge.net/DTD/sodipodi-0.dtd"
   xmlns:inkscape="http://www.inkscape.org/namespaces/inkscape"
   width="6.2486081in"
   height="6.2486081in"
   viewBox="0 0 158.71465 158.71465"
   version="1.1"
   id="svg8"
   inkscape:version="0.92.4 (5da689c313, 2019-01-14)"
   sodipodi:docname="stripes.svg"
   inkscape:export-filename="C:\Users\16mpe\Music\githubPages\graystripes.png"
   inkscape:export-xdpi="228.84"
   inkscape:export-ydpi="228.84">
  <defs
     id="defs2">
    <clipPath
       clipPathUnits="userSpaceOnUse"
       id="clipPath1166">
      <g
         id="g1170"
         transform="rotate(45,-115.62225,277.84631)">
        <path
           id="path1168"
           style="opacity:1;vector-effect:none;fill:#fff7f7;fill-opacity:1;fill-rule:nonzero;stroke:none;stroke-width:0.04681043;stroke-linecap:butt;stroke-linejoin:miter;stroke-miterlimit:4;stroke-dasharray:none;stroke-dashoffset:0;stroke-opacity:1;paint-order:normal"
           d="m -195.64102,66.613647 h 3.74177 V 303.78513 h -3.74177 z m 0,0 h 3.74177 V 303.78513 h -3.74177 z m -7.48355,0 h 3.74177 V 303.78513 h -3.74177 z m 0,0 h 3.74177 V 303.78513 h -3.74177 z m -7.48356,0 h 3.74177 V 303.78513 h -3.74177 z m 0,0 h 3.74177 V 303.78513 h -3.74177 z m -7.48355,0 h 3.74177 V 303.78513 h -3.74177 z m 0,0 h 3.74177 V 303.78513 h -3.74177 z m -7.48356,0 h 3.74177 V 303.78513 h -3.74177 z m 0,0 h 3.74177 V 303.78513 h -3.74177 z m -7.48355,0 h 3.74177 V 303.78513 h -3.74177 z m 0,0 h 3.74177 V 303.78513 h -3.74177 z m -7.48356,0 h 3.74177 V 303.78513 h -3.74177 z m 0,0 h 3.74177 V 303.78513 h -3.74177 z m -7.48355,0 h 3.74177 V 303.78513 h -3.74177 z m 0,0 h 3.74177 V 303.78513 h -3.74177 z m -7.48356,0 h 3.74177 V 303.78513 h -3.74177 z m 0,0 h 3.74177 V 303.78513 h -3.74177 z m -7.48355,0 h 3.74177 V 303.78513 h -3.74177 z m 0,0 h 3.74177 V 303.78513 h -3.74177 z m -7.48356,0 h 3.74177 V 303.78513 h -3.74177 z m 0,0 h 3.74177 V 303.78513 h -3.74177 z m -7.48355,0 h 3.74177 V 303.78513 h -3.74177 z m 0,0 h 3.74177 V 303.78513 h -3.74177 z m -7.48356,0 h 3.74177 V 303.78513 h -3.74177 z m 0,0 h 3.74177 V 303.78513 h -3.74177 z m -7.48355,0 h 3.74177 V 303.78513 h -3.74177 z m 0,0 h 3.74177 V 303.78513 h -3.74177 z m -7.48356,0 h 3.74177 V 303.78513 h -3.74177 z m 0,0 h 3.74177 V 303.78513 h -3.74177 z m -7.48356,0 h 3.74177 V 303.78513 h -3.74177 z m 0,0 h 3.74177 V 303.78513 h -3.74177 z m -7.48355,0 h 3.74177 V 303.78513 h -3.74177 z m 0,0 h 3.74177 V 303.78513 h -3.74177 z m -7.48356,0 h 3.74177 V 303.78513 h -3.74177 z m 0,0 h 3.74177 V 303.78513 h -3.74177 z m -7.48355,0 h 3.74177 V 303.78513 h -3.74177 z m 0,0 h 3.74177 V 303.78513 h -3.74177 z m -7.48356,0 h 3.74177 V 303.78513 h -3.74177 z m 0,0 h 3.74177 V 303.78513 h -3.74177 z m -7.48355,0 h 3.74177 V 303.78513 h -3.74177 z m 0,0 h 3.74177 V 303.78513 h -3.74177 z m -7.48356,0 h 3.74177 V 303.78513 h -3.74177 z m 0,0 h 3.74177 V 303.78513 h -3.74177 z m -7.48355,0 h 3.74177 V 303.78513 h -3.74177 z m 0,0 h 3.74177 V 303.78513 h -3.74177 z m -7.48356,0 h 3.74177 V 303.78513 h -3.74177 z m 0,0 h 3.74177 V 303.78513 h -3.74177 z m -7.48355,0 h 3.74177 V 303.78513 h -3.74177 z m 0,0 h 3.74177 V 303.78513 h -3.74177 z m -7.48356,0 h 3.74177 V 303.78513 h -3.74177 z m 0,0 h 3.74177 V 303.78513 h -3.74177 z m -7.48355,0 h 3.74177 V 303.78513 h -3.74177 z m 0,0 h 3.74177 V 303.78513 h -3.74177 z m -7.48356,0 h 3.74177 V 303.78513 h -3.74177 z m 0,0 h 3.74177 V 303.78513 h -3.74177 z m -7.48355,0 h 3.74177 V 303.78513 h -3.74177 z m 0,0 h 3.74177 V 303.78513 h -3.74177 z m -7.48356,0 h 3.74177 V 303.78513 h -3.74177 z m 0,0 h 3.74177 V 303.78513 h -3.74177 z"
           inkscape:connector-curvature="0" />
      </g>
    </clipPath>
  </defs>
  <sodipodi:namedview
     id="base"
     pagecolor="#ffffff"
     bordercolor="#666666"
     borderopacity="1.0"
     inkscape:pageopacity="1"
     inkscape:pageshadow="2"
     inkscape:zoom="0.7"
     inkscape:cx="314.12736"
     inkscape:cy="388.10848"
     inkscape:document-units="in"
     inkscape:current-layer="layer1"
     showgrid="false"
     units="in"
     showborder="true"
     borderlayer="true"
     inkscape:showpageshadow="false"
     inkscape:pagecheckerboard="false"
     fit-margin-top="0"
     fit-margin-left="0"
     fit-margin-right="0"
     fit-margin-bottom="0" />
  <metadata
     id="metadata5">
    <rdf:RDF>
      <cc:Work
         rdf:about="">
        <dc:format>image/svg+xml</dc:format>
        <dc:type
           rdf:resource="http://purl.org/dc/dcmitype/StillImage" />
        <dc:title></dc:title>
      </cc:Work>
    </rdf:RDF>
  </metadata>
  <g
     inkscape:label="Layer 1"
     inkscape:groupmode="layer"
     id="layer1"
     transform="translate(353.14629,-18.92521)">
    <path
       transform="rotate(-90,-218.97623,135.15963)"
       style="opacity:1;vector-effect:none;fill:#f2f2f2;fill-opacity:1;fill-rule:nonzero;stroke:none;stroke-width:0.24939597;stroke-linecap:butt;stroke-linejoin:miter;stroke-miterlimit:4;stroke-dasharray:none;stroke-dashoffset:0;stroke-opacity:1;paint-order:normal"
       d="m -261.45645,0.9895674 h 158.71464 V 159.70421 h -158.71464 z"
       id="rect814-4"
       clip-path="url(#clipPath1166)"
       inkscape:connector-curvature="0" />
  </g>
</svg>
